<svg width="56" height="52" viewBox="0 0 56 52" fill="none" xmlns="http://www.w3.org/2000/svg">
<rect y="0.101685" width="56" height="51.8081" rx="8" fill="#E2E2EA"/>
<path fill-rule="evenodd" clip-rule="evenodd" d="M36 19.5298V29.7064C37.1046 29.7064 38 28.878 38 27.8561V18.6047C38 17.5828 37.1046 16.7544 36 16.7544H26C24.8954 16.7544 24 17.5828 24 18.6047H35C35.5523 18.6047 36 19.0189 36 19.5298ZM33 32.4818V22.3053C33 21.7943 32.5523 21.3801 32 21.3801H21C21 20.3582 21.8954 19.5298 23 19.5298H33C34.1046 19.5298 35 20.3582 35 21.3801V30.6316C35 31.6534 34.1046 32.4818 33 32.4818ZM30 22.3053H20C18.8954 22.3053 18 23.1337 18 24.1555V33.407C18 34.4289 18.8954 35.2573 20 35.2573H30C31.1046 35.2573 32 34.4289 32 33.407V24.1555C32 23.1337 31.1046 22.3053 30 22.3053ZM20 33.407V24.1555H30V33.407H20Z" fill="#9A9AB0"/>
</svg>
